<?xml version="1.0" encoding="UTF-8"?>
<svg width="39px" height="39px" viewBox="0 0 39 39" version="1.1" xmlns="http://www.w3.org/2000/svg" xmlns:xlink="http://www.w3.org/1999/xlink">
    <!-- Generator: Sketch 55.2 (78181) - https://sketchapp.com -->
    <title>logo</title>
    <desc>Created with Sketch.</desc>
    <g id="Page-1" stroke="none" stroke-width="1" fill="none" fill-rule="evenodd">
        <g id="logo" transform="translate(0.000000, -1.000000)" fill-rule="nonzero">
            <path d="M28.31,26.94 L19.23,32.24 L10.14,26.94 C9.95792024,26.8372263 9.73504622,26.8384944 9.55414772,26.9433333 C9.37324921,27.0481722 9.26134748,27.2409219 9.25994898,27.45 L9.25994898,33.68 C9.25722105,33.8899615 9.36814145,34.0850284 9.55,34.19 L19.22,39.85 L19.22,39.85 L28.9,34.2 C29.0818586,34.0950284 29.192779,33.8999615 29.190051,33.69 L29.190051,27.45 C29.1886525,27.2409219 29.0767508,27.0481722 28.8958523,26.9433333 C28.7149538,26.8384944 28.4920798,26.8372263 28.31,26.94" id="Path" fill="#008EC7"></path>
            <path d="M38.37,6.64 L28.64,1.08 C28.4580236,0.972499479 28.2319764,0.972499479 28.05,1.08 L22.65,4.19 C22.4777862,4.29787788 22.3732092,4.48678774 22.3732092,4.69 C22.3732092,4.89321226 22.4777862,5.08212212 22.65,5.19 L31.8,10.42 L31.8,10.42 L31.74,20.94 C31.7413475,21.1490781 31.8532492,21.3418278 32.0341477,21.4466667 C32.2150462,21.5515056 32.4379202,21.5527737 32.62,21.45 L38,18.35 C38.1818586,18.2450284 38.292779,18.0499615 38.29,17.84 L38.36,6.64 L38.37,6.64 Z" id="Path" fill="#E94361"></path>
            <path d="M15.71,4.2 L10.32,1.08 C10.1374534,0.974606651 9.91254664,0.974606651 9.73,1.08 L0,6.62 L0,6.62 L0.05,17.82 C0.0472210454,18.0299615 0.15814145,18.2250284 0.34,18.33 L5.73,21.45 C5.91207976,21.5527737 6.13495378,21.5515056 6.31585228,21.4466667 C6.49675079,21.3418278 6.60865252,21.1490781 6.61,20.94 L6.61,10.41 L15.75,5.21 C15.9222138,5.10212212 16.0267908,4.91321226 16.0267908,4.71 C16.0267908,4.50678774 15.9222138,4.31787788 15.75,4.21" id="Path" fill="#4BB16B"></path>
            <path d="M27.2000146,22 L27.2000146,13.3 C27.197293,13.1098165 27.0947315,12.9350821 26.93,12.84 L19.45,8.47 C19.2829234,8.37353829 19.0770766,8.37353829 18.91,8.47 L11.42,12.84 C11.2552685,12.9350821 11.152707,13.1098165 11.15,13.3 L11.15,22 C11.152707,22.1901835 11.2552685,22.3649179 11.42,22.46 L18.91,26.83 C19.0765046,26.9285731 19.2834954,26.9285731 19.45,26.83 L26.94,22.46 C27.1023715,22.3638808 27.201396,22.1886835 27.2000146,22" id="Path" fill="#FCBF21"></path>
            <g id="Group" opacity="0.1" style="mix-blend-mode: multiply;" transform="translate(11.000000, 13.000000)" fill="#F7A815">
                <g id="Path">
                    <path d="M8.18,4.67 L0.56,0.23 C0.477385435,0.184579003 0.377061841,0.185539591 0.295332145,0.232534166 C0.213602449,0.279528741 0.162304164,0.365750734 0.159985432,0.46 L0.159985432,9 C0.158603974,9.18868347 0.257628532,9.36388077 0.42,9.46 L7.78,13.75 C7.86261456,13.795421 7.96293816,13.7944604 8.04466785,13.7474658 C8.12639755,13.7004713 8.17769584,13.6142493 8.18,13.52 L8.18,4.67 Z"></path>
                </g>
            </g>
            <g id="Group" opacity="0.1" style="mix-blend-mode: multiply;" transform="translate(19.000000, 13.000000)" fill="#F7A815">
                <g id="Path">
                    <path d="M0.18,4.67 L7.8,0.23 C7.88261456,0.184579003 7.98293816,0.185539591 8.06466785,0.232534166 C8.14639755,0.279528741 8.19769584,0.365750734 8.20001457,0.46 L8.20001457,9 C8.20139603,9.18868347 8.10237147,9.36388077 7.94,9.46 L0.58,13.76 C0.497385435,13.805421 0.397061841,13.8044604 0.315332145,13.7574658 C0.233602449,13.7104713 0.182304164,13.6242493 0.18,13.53 L0.18,4.67 Z"></path>
                </g>
            </g>
            <g id="Group" opacity="0.2" style="mix-blend-mode: multiply;" transform="translate(11.000000, 17.000000)" fill="#F9B216">
                <g id="Path">
                    <path d="M15.8,5.12 L8.17,0.67 L0.55,5.12 C0.470099795,5.16912868 0.421421356,5.25620411 0.421421356,5.35 C0.421421356,5.44379589 0.470099795,5.53087132 0.55,5.58 L7.91,9.87 C8.07707658,9.96646171 8.28292342,9.96646171 8.45,9.87 L15.81,5.58 C15.8899002,5.53087132 15.9385786,5.44379589 15.9385786,5.35 C15.9385786,5.25620411 15.8899002,5.16912868 15.81,5.12"></path>
                </g>
            </g>
            <path d="M26.8,12.76 L19.44,8.47 C19.2760174,8.37532462 19.0739826,8.37532462 18.91,8.47 L11.55,12.76 C11.4700998,12.8091287 11.4214214,12.8962041 11.4214214,12.99 C11.4214214,13.0837959 11.4700998,13.1708713 11.55,13.22 L19.17,17.67 L26.8,13.22 C26.8799002,13.1708713 26.9285786,13.0837959 26.9285786,12.99 C26.9285786,12.8962041 26.8799002,12.8091287 26.8,12.76" id="Path" fill="#FFCF1E"></path>
        </g>
    </g>
</svg>